<?xml version="1.0" encoding="utf-8"?>
<!-- Generator: Adobe Illustrator 23.0.5, SVG Export Plug-In . SVG Version: 6.00 Build 0)  -->
<svg version="1.1" id="Capa_1" xmlns="http://www.w3.org/2000/svg" xmlns:xlink="http://www.w3.org/1999/xlink" x="0px" y="0px"
	 viewBox="0 0 472 323.89" style="enable-background:new 0 0 472 323.89;" xml:space="preserve">
<style type="text/css">
	.st0{fill:#8ED5C8;}
	.st1{fill:#29B196;}
	.st2{fill:#90D6C9;}
</style>
<path class="st0" d="M431.25,449.29c0.56-0.12,1.05,0.05,1.62,0.37c-0.61,0.11-1.12,0.09-1.62,0.02
	C431.24,449.55,431.24,449.42,431.25,449.29z"/>
<g>
	<path class="st1" d="M104.18,224.35c11.64,0.4,22.99,2.5,34.11,5.94c12.72,3.94,24.68,9.59,36.33,15.97
		c11.03,6.05,21.67,12.78,32.54,19.12c7.87,4.59,15.85,8.96,24.26,12.49c0.22,0.09,0.47,0.13,0.63,0.46
		c-1.18,0.79-2.35,1.59-3.54,2.37c-12.53,8.19-25.79,14.86-40.08,19.4c-7.17,2.28-14.48,3.93-21.93,4.9
		c-4,0.52-8.03,0.78-12.07,0.89c-4.08,0.11-8.15-0.03-12.2-0.4c-7.01-0.63-13.9-1.96-20.66-3.96c-14.9-4.41-28.26-11.75-40.55-21.17
		c-7.44-5.7-14.3-12.05-20.71-18.89c-9.57-10.2-18.02-21.28-25.73-32.94c-6.81-10.31-12.97-20.99-18.71-31.93
		c-0.44-0.84,0.07-0.93,0.56-1.16c6.23-2.88,12.52-5.62,18.92-8.12c10.79-4.22,21.77-7.84,33.04-10.53
		c7.54-1.8,15.15-3.17,22.86-4.04c7.44-0.84,14.9-1.16,22.38-0.84c15.52,0.65,30.43,3.97,44.55,10.58
		c9.94,4.66,18.98,10.7,27.24,17.93c11.19,9.79,20.43,21.22,28.43,33.7c7.27,11.32,13.32,23.28,18.62,35.63
		c0.09,0.22,0.17,0.44,0.27,0.73c-1.04,0.1-1.92-0.32-2.82-0.6c-5.46-1.67-10.46-4.33-15.36-7.2c-8.34-4.89-16.29-10.42-24.46-15.58
		c-8.99-5.68-18.16-11.02-27.93-15.27c-8.56-3.73-17.4-6.54-26.62-8.06c-6.24-1.03-12.54-1.45-18.86-1.17
		c-4.27,0.19-8.51,0.68-12.73,1.4c-0.22,0.17-0.47,0.24-0.56,0.26C103.55,224.19,103.87,224.22,104.18,224.35z"/>
	<path class="st1" d="M371.23,235.73c-5.2-0.59-10.42-1-15.65-1.16c-5.24-0.16-10.46-0.01-15.69,0.34
		c-8.55,0.57-16.98,1.9-25.29,3.94c-7.88,1.93-15.55,4.54-23,7.75c-14.78,6.36-28.26,14.86-40.77,24.94
		c-0.93,0.75-1.86,1.51-2.8,2.27c-0.29-0.38,0.05-0.63,0.17-0.87c7.75-15.14,16.41-29.72,26.82-43.22
		c4.32-5.61,8.94-10.97,13.89-16.03c7.27-7.43,15.18-14.07,23.98-19.62c10.99-6.93,22.83-11.75,35.6-14.22
		c5.65-1.09,11.37-1.65,17.13-1.87c4.72-0.18,9.43,0.02,14.12,0.41c8.01,0.67,15.9,2.12,23.68,4.12
		c13.69,3.53,26.8,8.63,39.54,14.71c5.52,2.63,10.94,5.43,16.3,8.38c1.11,0.61,0.87,0.57,0.37,1.38
		c-7.97,13.04-16.5,25.68-25.93,37.71c-7.24,9.23-14.95,18.03-23.36,26.22c-11.37,11.06-23.76,20.77-37.88,28.13
		c-10.3,5.37-21.15,9.15-32.64,11c-6.93,1.12-13.92,1.4-20.92,0.96c-13.59-0.86-26.46-4.51-38.79-10.2
		c-11.53-5.32-22.1-12.17-32.07-19.98c-0.13-0.1-0.25-0.2-0.42-0.35c2.18-2.04,4.44-3.87,6.75-5.65
		c10.52-8.08,22.06-14.38,34.22-19.59c15.2-6.52,30.96-11.21,47.16-14.52c6.53-1.34,13.11-2.44,19.72-3.25
		c5.23-0.64,10.48-1.17,15.76-1.33c0.4-0.26,0.82-0.21,1.25-0.04C372.07,235.9,371.6,236,371.23,235.73z"/>
	<path class="st2" d="M104.18,224.35c-0.42,0.09-0.85,0.06-1.29-0.04c0.34-0.17,0.64-0.42,1.06-0.34
		C104.03,224.11,104.11,224.23,104.18,224.35z"/>
	<path class="st1" d="M242.09,266.51c-1.97-2.88-3.91-5.66-5.8-8.48c-13.85-20.65-26.68-41.91-38.21-63.95
		c-8.52-16.28-16.26-32.92-22.48-50.24c-2.82-7.85-5.3-15.81-7.2-23.93c-1.62-6.93-2.83-13.92-3.37-21.02
		c-1.03-13.61,1.07-26.66,6.79-39.09c4.17-9.08,9.88-17.07,17.15-23.91c10.86-10.21,23.62-16.8,38.24-19.73
		c4.08-0.82,8.21-1.22,12.37-1.37c13.12-0.45,25.62,2.11,37.26,8.13c21.84,11.3,35.53,29.05,41.06,53.03
		c1.02,4.44,1.46,8.97,1.63,13.54c0.28,7.07-0.55,14.03-1.89,20.94c-2.79,14.44-7.61,28.26-13.13,41.84
		c-7.76,19.07-16.96,37.44-26.84,55.48c-9.54,17.42-19.71,34.46-30.46,51.16c-1.58,2.45-3.19,4.88-4.79,7.32
		C242.37,266.3,242.29,266.34,242.09,266.51z M280.32,101.05c-0.38-20.27-17.01-37.63-38.64-37.38
		c-21.04,0.24-38.09,17.56-37.65,38.96c0.43,20.95,17.68,37.39,38.09,37.3C263.09,140.09,280.73,122.68,280.32,101.05z"/>
</g>
</svg>
